<?xml version="1.0" encoding="utf-8" standalone="no"?>
<!DOCTYPE svg PUBLIC "-//W3C//DTD SVG 1.1//EN"
  "http://www.w3.org/Graphics/SVG/1.1/DTD/svg11.dtd">
<svg xmlns:xlink="http://www.w3.org/1999/xlink" width="1440pt" height="576pt" viewBox="0 0 1440 576" xmlns="http://www.w3.org/2000/svg" version="1.1">
 <metadata>
  <rdf:RDF xmlns:dc="http://purl.org/dc/elements/1.1/" xmlns:cc="http://creativecommons.org/ns#" xmlns:rdf="http://www.w3.org/1999/02/22-rdf-syntax-ns#">
   <cc:Work>
    <dc:type rdf:resource="http://purl.org/dc/dcmitype/StillImage"/>
    <dc:date>2023-08-25T10:51:56.814426</dc:date>
    <dc:format>image/svg+xml</dc:format>
    <dc:creator>
     <cc:Agent>
      <dc:title>Matplotlib v3.6.2, https://matplotlib.org/</dc:title>
     </cc:Agent>
    </dc:creator>
   </cc:Work>
  </rdf:RDF>
 </metadata>
 <defs>
  <style type="text/css">*{stroke-linejoin: round; stroke-linecap: butt}</style>
 </defs>
 <g id="figure_1">
  <g id="patch_1">
   <path d="M 0 576 
L 1440 576 
L 1440 0 
L 0 0 
z
" style="fill: #ffffff"/>
  </g>
  <g id="axes_1">
   <g id="patch_2">
    <path d="M 180 512.64 
L 422.608696 512.64 
L 422.608696 69.12 
L 180 69.12 
z
" style="fill: #ffffff"/>
   </g>
   <g id="matplotlib.axis_1">
    <g id="xtick_1">
     <g id="line2d_1">
      <path d="M 191.027668 512.64 
L 191.027668 69.12 
" clip-path="url(#p3ad412e384)" style="fill: none; stroke: #b0b0b0; stroke-width: 0.8; stroke-linecap: square"/>
     </g>
     <g id="line2d_2">
      <defs>
       <path id="m43b7c0e360" d="M 0 0 
L 0 3.5 
" style="stroke: #000000; stroke-width: 0.8"/>
      </defs>
      <g>
       <use xlink:href="#m43b7c0e360" x="191.027668" y="512.64" style="stroke: #000000; stroke-width: 0.8"/>
      </g>
     </g>
     <g id="text_1">
      <!-- 0 -->
      <g transform="translate(187.846418 527.238438) scale(0.1 -0.1)">
       <defs>
        <path id="DejaVuSans-30" d="M 2034 4250 
Q 1547 4250 1301 3770 
Q 1056 3291 1056 2328 
Q 1056 1369 1301 889 
Q 1547 409 2034 409 
Q 2525 409 2770 889 
Q 3016 1369 3016 2328 
Q 3016 3291 2770 3770 
Q 2525 4250 2034 4250 
z
M 2034 4750 
Q 2819 4750 3233 4129 
Q 3647 3509 3647 2328 
Q 3647 1150 3233 529 
Q 2819 -91 2034 -91 
Q 1250 -91 836 529 
Q 422 1150 422 2328 
Q 422 3509 836 4129 
Q 1250 4750 2034 4750 
z
" transform="scale(0.015625)"/>
       </defs>
       <use xlink:href="#DejaVuSans-30"/>
      </g>
     </g>
    </g>
    <g id="xtick_2">
     <g id="line2d_3">
      <path d="M 235.13834 512.64 
L 235.13834 69.12 
" clip-path="url(#p3ad412e384)" style="fill: none; stroke: #b0b0b0; stroke-width: 0.8; stroke-linecap: square"/>
     </g>
     <g id="line2d_4">
      <g>
       <use xlink:href="#m43b7c0e360" x="235.13834" y="512.64" style="stroke: #000000; stroke-width: 0.8"/>
      </g>
     </g>
     <g id="text_2">
      <!-- 200 -->
      <g transform="translate(225.59459 527.238438) scale(0.1 -0.1)">
       <defs>
        <path id="DejaVuSans-32" d="M 1228 531 
L 3431 531 
L 3431 0 
L 469 0 
L 469 531 
Q 828 903 1448 1529 
Q 2069 2156 2228 2338 
Q 2531 2678 2651 2914 
Q 2772 3150 2772 3378 
Q 2772 3750 2511 3984 
Q 2250 4219 1831 4219 
Q 1534 4219 1204 4116 
Q 875 4013 500 3803 
L 500 4441 
Q 881 4594 1212 4672 
Q 1544 4750 1819 4750 
Q 2544 4750 2975 4387 
Q 3406 4025 3406 3419 
Q 3406 3131 3298 2873 
Q 3191 2616 2906 2266 
Q 2828 2175 2409 1742 
Q 1991 1309 1228 531 
z
" transform="scale(0.015625)"/>
       </defs>
       <use xlink:href="#DejaVuSans-32"/>
       <use xlink:href="#DejaVuSans-30" x="63.623047"/>
       <use xlink:href="#DejaVuSans-30" x="127.246094"/>
      </g>
     </g>
    </g>
    <g id="xtick_3">
     <g id="line2d_5">
      <path d="M 279.249012 512.64 
L 279.249012 69.12 
" clip-path="url(#p3ad412e384)" style="fill: none; stroke: #b0b0b0; stroke-width: 0.8; stroke-linecap: square"/>
     </g>
     <g id="line2d_6">
      <g>
       <use xlink:href="#m43b7c0e360" x="279.249012" y="512.64" style="stroke: #000000; stroke-width: 0.8"/>
      </g>
     </g>
     <g id="text_3">
      <!-- 400 -->
      <g transform="translate(269.705262 527.238438) scale(0.1 -0.1)">
       <defs>
        <path id="DejaVuSans-34" d="M 2419 4116 
L 825 1625 
L 2419 1625 
L 2419 4116 
z
M 2253 4666 
L 3047 4666 
L 3047 1625 
L 3713 1625 
L 3713 1100 
L 3047 1100 
L 3047 0 
L 2419 0 
L 2419 1100 
L 313 1100 
L 313 1709 
L 2253 4666 
z
" transform="scale(0.015625)"/>
       </defs>
       <use xlink:href="#DejaVuSans-34"/>
       <use xlink:href="#DejaVuSans-30" x="63.623047"/>
       <use xlink:href="#DejaVuSans-30" x="127.246094"/>
      </g>
     </g>
    </g>
    <g id="xtick_4">
     <g id="line2d_7">
      <path d="M 323.359684 512.64 
L 323.359684 69.12 
" clip-path="url(#p3ad412e384)" style="fill: none; stroke: #b0b0b0; stroke-width: 0.8; stroke-linecap: square"/>
     </g>
     <g id="line2d_8">
      <g>
       <use xlink:href="#m43b7c0e360" x="323.359684" y="512.64" style="stroke: #000000; stroke-width: 0.8"/>
      </g>
     </g>
     <g id="text_4">
      <!-- 600 -->
      <g transform="translate(313.815934 527.238438) scale(0.1 -0.1)">
       <defs>
        <path id="DejaVuSans-36" d="M 2113 2584 
Q 1688 2584 1439 2293 
Q 1191 2003 1191 1497 
Q 1191 994 1439 701 
Q 1688 409 2113 409 
Q 2538 409 2786 701 
Q 3034 994 3034 1497 
Q 3034 2003 2786 2293 
Q 2538 2584 2113 2584 
z
M 3366 4563 
L 3366 3988 
Q 3128 4100 2886 4159 
Q 2644 4219 2406 4219 
Q 1781 4219 1451 3797 
Q 1122 3375 1075 2522 
Q 1259 2794 1537 2939 
Q 1816 3084 2150 3084 
Q 2853 3084 3261 2657 
Q 3669 2231 3669 1497 
Q 3669 778 3244 343 
Q 2819 -91 2113 -91 
Q 1303 -91 875 529 
Q 447 1150 447 2328 
Q 447 3434 972 4092 
Q 1497 4750 2381 4750 
Q 2619 4750 2861 4703 
Q 3103 4656 3366 4563 
z
" transform="scale(0.015625)"/>
       </defs>
       <use xlink:href="#DejaVuSans-36"/>
       <use xlink:href="#DejaVuSans-30" x="63.623047"/>
       <use xlink:href="#DejaVuSans-30" x="127.246094"/>
      </g>
     </g>
    </g>
    <g id="xtick_5">
     <g id="line2d_9">
      <path d="M 367.470356 512.64 
L 367.470356 69.12 
" clip-path="url(#p3ad412e384)" style="fill: none; stroke: #b0b0b0; stroke-width: 0.8; stroke-linecap: square"/>
     </g>
     <g id="line2d_10">
      <g>
       <use xlink:href="#m43b7c0e360" x="367.470356" y="512.64" style="stroke: #000000; stroke-width: 0.8"/>
      </g>
     </g>
     <g id="text_5">
      <!-- 800 -->
      <g transform="translate(357.926606 527.238438) scale(0.1 -0.1)">
       <defs>
        <path id="DejaVuSans-38" d="M 2034 2216 
Q 1584 2216 1326 1975 
Q 1069 1734 1069 1313 
Q 1069 891 1326 650 
Q 1584 409 2034 409 
Q 2484 409 2743 651 
Q 3003 894 3003 1313 
Q 3003 1734 2745 1975 
Q 2488 2216 2034 2216 
z
M 1403 2484 
Q 997 2584 770 2862 
Q 544 3141 544 3541 
Q 544 4100 942 4425 
Q 1341 4750 2034 4750 
Q 2731 4750 3128 4425 
Q 3525 4100 3525 3541 
Q 3525 3141 3298 2862 
Q 3072 2584 2669 2484 
Q 3125 2378 3379 2068 
Q 3634 1759 3634 1313 
Q 3634 634 3220 271 
Q 2806 -91 2034 -91 
Q 1263 -91 848 271 
Q 434 634 434 1313 
Q 434 1759 690 2068 
Q 947 2378 1403 2484 
z
M 1172 3481 
Q 1172 3119 1398 2916 
Q 1625 2713 2034 2713 
Q 2441 2713 2670 2916 
Q 2900 3119 2900 3481 
Q 2900 3844 2670 4047 
Q 2441 4250 2034 4250 
Q 1625 4250 1398 4047 
Q 1172 3844 1172 3481 
z
" transform="scale(0.015625)"/>
       </defs>
       <use xlink:href="#DejaVuSans-38"/>
       <use xlink:href="#DejaVuSans-30" x="63.623047"/>
       <use xlink:href="#DejaVuSans-30" x="127.246094"/>
      </g>
     </g>
    </g>
    <g id="xtick_6">
     <g id="line2d_11">
      <path d="M 411.581028 512.64 
L 411.581028 69.12 
" clip-path="url(#p3ad412e384)" style="fill: none; stroke: #b0b0b0; stroke-width: 0.8; stroke-linecap: square"/>
     </g>
     <g id="line2d_12">
      <g>
       <use xlink:href="#m43b7c0e360" x="411.581028" y="512.64" style="stroke: #000000; stroke-width: 0.8"/>
      </g>
     </g>
     <g id="text_6">
      <!-- 1000 -->
      <g transform="translate(398.856028 527.238438) scale(0.1 -0.1)">
       <defs>
        <path id="DejaVuSans-31" d="M 794 531 
L 1825 531 
L 1825 4091 
L 703 3866 
L 703 4441 
L 1819 4666 
L 2450 4666 
L 2450 531 
L 3481 531 
L 3481 0 
L 794 0 
L 794 531 
z
" transform="scale(0.015625)"/>
       </defs>
       <use xlink:href="#DejaVuSans-31"/>
       <use xlink:href="#DejaVuSans-30" x="63.623047"/>
       <use xlink:href="#DejaVuSans-30" x="127.246094"/>
       <use xlink:href="#DejaVuSans-30" x="190.869141"/>
      </g>
     </g>
    </g>
    <g id="text_7">
     <!-- Gerações -->
     <g transform="translate(277.744192 540.935313) scale(0.1 -0.1)">
      <defs>
       <path id="DejaVuSans-47" d="M 3809 666 
L 3809 1919 
L 2778 1919 
L 2778 2438 
L 4434 2438 
L 4434 434 
Q 4069 175 3628 42 
Q 3188 -91 2688 -91 
Q 1594 -91 976 548 
Q 359 1188 359 2328 
Q 359 3472 976 4111 
Q 1594 4750 2688 4750 
Q 3144 4750 3555 4637 
Q 3966 4525 4313 4306 
L 4313 3634 
Q 3963 3931 3569 4081 
Q 3175 4231 2741 4231 
Q 1884 4231 1454 3753 
Q 1025 3275 1025 2328 
Q 1025 1384 1454 906 
Q 1884 428 2741 428 
Q 3075 428 3337 486 
Q 3600 544 3809 666 
z
" transform="scale(0.015625)"/>
       <path id="DejaVuSans-65" d="M 3597 1894 
L 3597 1613 
L 953 1613 
Q 991 1019 1311 708 
Q 1631 397 2203 397 
Q 2534 397 2845 478 
Q 3156 559 3463 722 
L 3463 178 
Q 3153 47 2828 -22 
Q 2503 -91 2169 -91 
Q 1331 -91 842 396 
Q 353 884 353 1716 
Q 353 2575 817 3079 
Q 1281 3584 2069 3584 
Q 2775 3584 3186 3129 
Q 3597 2675 3597 1894 
z
M 3022 2063 
Q 3016 2534 2758 2815 
Q 2500 3097 2075 3097 
Q 1594 3097 1305 2825 
Q 1016 2553 972 2059 
L 3022 2063 
z
" transform="scale(0.015625)"/>
       <path id="DejaVuSans-72" d="M 2631 2963 
Q 2534 3019 2420 3045 
Q 2306 3072 2169 3072 
Q 1681 3072 1420 2755 
Q 1159 2438 1159 1844 
L 1159 0 
L 581 0 
L 581 3500 
L 1159 3500 
L 1159 2956 
Q 1341 3275 1631 3429 
Q 1922 3584 2338 3584 
Q 2397 3584 2469 3576 
Q 2541 3569 2628 3553 
L 2631 2963 
z
" transform="scale(0.015625)"/>
       <path id="DejaVuSans-61" d="M 2194 1759 
Q 1497 1759 1228 1600 
Q 959 1441 959 1056 
Q 959 750 1161 570 
Q 1363 391 1709 391 
Q 2188 391 2477 730 
Q 2766 1069 2766 1631 
L 2766 1759 
L 2194 1759 
z
M 3341 1997 
L 3341 0 
L 2766 0 
L 2766 531 
Q 2569 213 2275 61 
Q 1981 -91 1556 -91 
Q 1019 -91 701 211 
Q 384 513 384 1019 
Q 384 1609 779 1909 
Q 1175 2209 1959 2209 
L 2766 2209 
L 2766 2266 
Q 2766 2663 2505 2880 
Q 2244 3097 1772 3097 
Q 1472 3097 1187 3025 
Q 903 2953 641 2809 
L 641 3341 
Q 956 3463 1253 3523 
Q 1550 3584 1831 3584 
Q 2591 3584 2966 3190 
Q 3341 2797 3341 1997 
z
" transform="scale(0.015625)"/>
       <path id="DejaVuSans-e7" d="M 3122 3366 
L 3122 2828 
Q 2878 2963 2633 3030 
Q 2388 3097 2138 3097 
Q 1578 3097 1268 2742 
Q 959 2388 959 1747 
Q 959 1106 1268 751 
Q 1578 397 2138 397 
Q 2388 397 2633 464 
Q 2878 531 3122 666 
L 3122 134 
Q 2881 22 2623 -34 
Q 2366 -91 2075 -91 
Q 1284 -91 818 406 
Q 353 903 353 1747 
Q 353 2603 823 3093 
Q 1294 3584 2113 3584 
Q 2378 3584 2631 3529 
Q 2884 3475 3122 3366 
z
M 2311 0 
Q 2482 -194 2566 -358 
Q 2651 -522 2651 -672 
Q 2651 -950 2463 -1092 
Q 2276 -1234 1907 -1234 
Q 1764 -1234 1628 -1215 
Q 1492 -1197 1357 -1159 
L 1357 -750 
Q 1464 -803 1579 -826 
Q 1695 -850 1842 -850 
Q 2026 -850 2120 -775 
Q 2214 -700 2214 -556 
Q 2214 -463 2146 -327 
Q 2079 -191 1939 0 
L 2311 0 
z
" transform="scale(0.015625)"/>
       <path id="DejaVuSans-f5" d="M 1959 3097 
Q 1497 3097 1228 2736 
Q 959 2375 959 1747 
Q 959 1119 1226 758 
Q 1494 397 1959 397 
Q 2419 397 2687 759 
Q 2956 1122 2956 1747 
Q 2956 2369 2687 2733 
Q 2419 3097 1959 3097 
z
M 1959 3584 
Q 2709 3584 3137 3096 
Q 3566 2609 3566 1747 
Q 3566 888 3137 398 
Q 2709 -91 1959 -91 
Q 1206 -91 779 398 
Q 353 888 353 1747 
Q 353 2609 779 3096 
Q 1206 3584 1959 3584 
z
M 1948 4281 
L 1769 4453 
Q 1701 4516 1649 4545 
Q 1598 4575 1557 4575 
Q 1438 4575 1382 4461 
Q 1326 4347 1319 4091 
L 929 4091 
Q 935 4513 1094 4742 
Q 1254 4972 1538 4972 
Q 1657 4972 1757 4928 
Q 1857 4884 1973 4781 
L 2151 4609 
Q 2219 4547 2271 4517 
Q 2323 4488 2363 4488 
Q 2482 4488 2538 4602 
Q 2594 4716 2601 4972 
L 2991 4972 
Q 2985 4550 2825 4320 
Q 2666 4091 2382 4091 
Q 2263 4091 2163 4134 
Q 2063 4178 1948 4281 
z
" transform="scale(0.015625)"/>
       <path id="DejaVuSans-73" d="M 2834 3397 
L 2834 2853 
Q 2591 2978 2328 3040 
Q 2066 3103 1784 3103 
Q 1356 3103 1142 2972 
Q 928 2841 928 2578 
Q 928 2378 1081 2264 
Q 1234 2150 1697 2047 
L 1894 2003 
Q 2506 1872 2764 1633 
Q 3022 1394 3022 966 
Q 3022 478 2636 193 
Q 2250 -91 1575 -91 
Q 1294 -91 989 -36 
Q 684 19 347 128 
L 347 722 
Q 666 556 975 473 
Q 1284 391 1588 391 
Q 1994 391 2212 530 
Q 2431 669 2431 922 
Q 2431 1156 2273 1281 
Q 2116 1406 1581 1522 
L 1381 1569 
Q 847 1681 609 1914 
Q 372 2147 372 2553 
Q 372 3047 722 3315 
Q 1072 3584 1716 3584 
Q 2034 3584 2315 3537 
Q 2597 3491 2834 3397 
z
" transform="scale(0.015625)"/>
      </defs>
      <use xlink:href="#DejaVuSans-47"/>
      <use xlink:href="#DejaVuSans-65" x="77.490234"/>
      <use xlink:href="#DejaVuSans-72" x="139.013672"/>
      <use xlink:href="#DejaVuSans-61" x="180.126953"/>
      <use xlink:href="#DejaVuSans-e7" x="241.40625"/>
      <use xlink:href="#DejaVuSans-f5" x="296.386719"/>
      <use xlink:href="#DejaVuSans-65" x="357.568359"/>
      <use xlink:href="#DejaVuSans-73" x="419.091797"/>
     </g>
    </g>
   </g>
   <g id="matplotlib.axis_2">
    <g id="ytick_1">
     <g id="line2d_13">
      <path d="M 180 464.484011 
L 422.608696 464.484011 
" clip-path="url(#p3ad412e384)" style="fill: none; stroke: #b0b0b0; stroke-width: 0.8; stroke-linecap: square"/>
     </g>
     <g id="line2d_14">
      <defs>
       <path id="me17b0ba368" d="M 0 0 
L -3.5 0 
" style="stroke: #000000; stroke-width: 0.8"/>
      </defs>
      <g>
       <use xlink:href="#me17b0ba368" x="180" y="464.484011" style="stroke: #000000; stroke-width: 0.8"/>
      </g>
     </g>
     <g id="text_8">
      <!-- 100 -->
      <g transform="translate(153.9125 468.283229) scale(0.1 -0.1)">
       <use xlink:href="#DejaVuSans-31"/>
       <use xlink:href="#DejaVuSans-30" x="63.623047"/>
       <use xlink:href="#DejaVuSans-30" x="127.246094"/>
      </g>
     </g>
    </g>
    <g id="ytick_2">
     <g id="line2d_15">
      <path d="M 180 381.303524 
L 422.608696 381.303524 
" clip-path="url(#p3ad412e384)" style="fill: none; stroke: #b0b0b0; stroke-width: 0.8; stroke-linecap: square"/>
     </g>
     <g id="line2d_16">
      <g>
       <use xlink:href="#me17b0ba368" x="180" y="381.303524" style="stroke: #000000; stroke-width: 0.8"/>
      </g>
     </g>
     <g id="text_9">
      <!-- 200 -->
      <g transform="translate(153.9125 385.102743) scale(0.1 -0.1)">
       <use xlink:href="#DejaVuSans-32"/>
       <use xlink:href="#DejaVuSans-30" x="63.623047"/>
       <use xlink:href="#DejaVuSans-30" x="127.246094"/>
      </g>
     </g>
    </g>
    <g id="ytick_3">
     <g id="line2d_17">
      <path d="M 180 298.123037 
L 422.608696 298.123037 
" clip-path="url(#p3ad412e384)" style="fill: none; stroke: #b0b0b0; stroke-width: 0.8; stroke-linecap: square"/>
     </g>
     <g id="line2d_18">
      <g>
       <use xlink:href="#me17b0ba368" x="180" y="298.123037" style="stroke: #000000; stroke-width: 0.8"/>
      </g>
     </g>
     <g id="text_10">
      <!-- 300 -->
      <g transform="translate(153.9125 301.922256) scale(0.1 -0.1)">
       <defs>
        <path id="DejaVuSans-33" d="M 2597 2516 
Q 3050 2419 3304 2112 
Q 3559 1806 3559 1356 
Q 3559 666 3084 287 
Q 2609 -91 1734 -91 
Q 1441 -91 1130 -33 
Q 819 25 488 141 
L 488 750 
Q 750 597 1062 519 
Q 1375 441 1716 441 
Q 2309 441 2620 675 
Q 2931 909 2931 1356 
Q 2931 1769 2642 2001 
Q 2353 2234 1838 2234 
L 1294 2234 
L 1294 2753 
L 1863 2753 
Q 2328 2753 2575 2939 
Q 2822 3125 2822 3475 
Q 2822 3834 2567 4026 
Q 2313 4219 1838 4219 
Q 1578 4219 1281 4162 
Q 984 4106 628 3988 
L 628 4550 
Q 988 4650 1302 4700 
Q 1616 4750 1894 4750 
Q 2613 4750 3031 4423 
Q 3450 4097 3450 3541 
Q 3450 3153 3228 2886 
Q 3006 2619 2597 2516 
z
" transform="scale(0.015625)"/>
       </defs>
       <use xlink:href="#DejaVuSans-33"/>
       <use xlink:href="#DejaVuSans-30" x="63.623047"/>
       <use xlink:href="#DejaVuSans-30" x="127.246094"/>
      </g>
     </g>
    </g>
    <g id="ytick_4">
     <g id="line2d_19">
      <path d="M 180 214.942551 
L 422.608696 214.942551 
" clip-path="url(#p3ad412e384)" style="fill: none; stroke: #b0b0b0; stroke-width: 0.8; stroke-linecap: square"/>
     </g>
     <g id="line2d_20">
      <g>
       <use xlink:href="#me17b0ba368" x="180" y="214.942551" style="stroke: #000000; stroke-width: 0.8"/>
      </g>
     </g>
     <g id="text_11">
      <!-- 400 -->
      <g transform="translate(153.9125 218.741769) scale(0.1 -0.1)">
       <use xlink:href="#DejaVuSans-34"/>
       <use xlink:href="#DejaVuSans-30" x="63.623047"/>
       <use xlink:href="#DejaVuSans-30" x="127.246094"/>
      </g>
     </g>
    </g>
    <g id="ytick_5">
     <g id="line2d_21">
      <path d="M 180 131.762064 
L 422.608696 131.762064 
" clip-path="url(#p3ad412e384)" style="fill: none; stroke: #b0b0b0; stroke-width: 0.8; stroke-linecap: square"/>
     </g>
     <g id="line2d_22">
      <g>
       <use xlink:href="#me17b0ba368" x="180" y="131.762064" style="stroke: #000000; stroke-width: 0.8"/>
      </g>
     </g>
     <g id="text_12">
      <!-- 500 -->
      <g transform="translate(153.9125 135.561283) scale(0.1 -0.1)">
       <defs>
        <path id="DejaVuSans-35" d="M 691 4666 
L 3169 4666 
L 3169 4134 
L 1269 4134 
L 1269 2991 
Q 1406 3038 1543 3061 
Q 1681 3084 1819 3084 
Q 2600 3084 3056 2656 
Q 3513 2228 3513 1497 
Q 3513 744 3044 326 
Q 2575 -91 1722 -91 
Q 1428 -91 1123 -41 
Q 819 9 494 109 
L 494 744 
Q 775 591 1075 516 
Q 1375 441 1709 441 
Q 2250 441 2565 725 
Q 2881 1009 2881 1497 
Q 2881 1984 2565 2268 
Q 2250 2553 1709 2553 
Q 1456 2553 1204 2497 
Q 953 2441 691 2322 
L 691 4666 
z
" transform="scale(0.015625)"/>
       </defs>
       <use xlink:href="#DejaVuSans-35"/>
       <use xlink:href="#DejaVuSans-30" x="63.623047"/>
       <use xlink:href="#DejaVuSans-30" x="127.246094"/>
      </g>
     </g>
    </g>
    <g id="text_13">
     <!-- MSE -->
     <g transform="translate(147.832812 301.527656) rotate(-90) scale(0.1 -0.1)">
      <defs>
       <path id="DejaVuSans-4d" d="M 628 4666 
L 1569 4666 
L 2759 1491 
L 3956 4666 
L 4897 4666 
L 4897 0 
L 4281 0 
L 4281 4097 
L 3078 897 
L 2444 897 
L 1241 4097 
L 1241 0 
L 628 0 
L 628 4666 
z
" transform="scale(0.015625)"/>
       <path id="DejaVuSans-53" d="M 3425 4513 
L 3425 3897 
Q 3066 4069 2747 4153 
Q 2428 4238 2131 4238 
Q 1616 4238 1336 4038 
Q 1056 3838 1056 3469 
Q 1056 3159 1242 3001 
Q 1428 2844 1947 2747 
L 2328 2669 
Q 3034 2534 3370 2195 
Q 3706 1856 3706 1288 
Q 3706 609 3251 259 
Q 2797 -91 1919 -91 
Q 1588 -91 1214 -16 
Q 841 59 441 206 
L 441 856 
Q 825 641 1194 531 
Q 1563 422 1919 422 
Q 2459 422 2753 634 
Q 3047 847 3047 1241 
Q 3047 1584 2836 1778 
Q 2625 1972 2144 2069 
L 1759 2144 
Q 1053 2284 737 2584 
Q 422 2884 422 3419 
Q 422 4038 858 4394 
Q 1294 4750 2059 4750 
Q 2388 4750 2728 4690 
Q 3069 4631 3425 4513 
z
" transform="scale(0.015625)"/>
       <path id="DejaVuSans-45" d="M 628 4666 
L 3578 4666 
L 3578 4134 
L 1259 4134 
L 1259 2753 
L 3481 2753 
L 3481 2222 
L 1259 2222 
L 1259 531 
L 3634 531 
L 3634 0 
L 628 0 
L 628 4666 
z
" transform="scale(0.015625)"/>
      </defs>
      <use xlink:href="#DejaVuSans-4d"/>
      <use xlink:href="#DejaVuSans-53" x="86.279297"/>
      <use xlink:href="#DejaVuSans-45" x="149.755859"/>
     </g>
    </g>
   </g>
   <g id="line2d_23">
    <path d="M 191.027668 89.28 
L 191.909881 166.741945 
L 192.130435 182.301091 
L 192.350988 216.61668 
L 192.792095 226.722685 
L 193.012648 242.612073 
L 194.115415 271.227855 
L 194.556522 274.89645 
L 194.997628 287.932795 
L 195.218182 293.475687 
L 195.438735 293.886455 
L 195.659289 295.253299 
L 195.879842 298.80925 
L 196.100395 304.978041 
L 196.541502 307.931676 
L 196.762055 307.931676 
L 196.982609 312.818853 
L 197.423715 315.702754 
L 197.644269 320.655921 
L 197.864822 323.008664 
L 198.085375 323.384078 
L 198.305929 327.037942 
L 198.747036 327.042829 
L 198.967589 328.708061 
L 199.188142 333.150131 
L 199.408696 333.163954 
L 199.629249 335.235214 
L 199.849802 343.94227 
L 200.070356 343.94227 
L 200.290909 345.460931 
L 200.511462 345.460931 
L 200.732016 353.142987 
L 200.952569 364.85589 
L 201.393676 364.950005 
L 201.614229 366.673038 
L 202.055336 367.196655 
L 202.275889 367.196655 
L 202.496443 374.832362 
L 202.716996 375.961811 
L 203.599209 386.505229 
L 204.040316 386.587997 
L 204.26087 386.628202 
L 204.481423 387.249237 
L 204.701976 388.342437 
L 204.92253 392.040625 
L 205.143083 392.590173 
L 205.363636 392.590173 
L 205.804743 393.757562 
L 206.025296 393.757562 
L 206.24585 397.860959 
L 206.466403 397.860959 
L 206.686957 398.231886 
L 206.90751 400.93819 
L 207.128063 401.658255 
L 207.348617 403.330809 
L 207.789723 403.330809 
L 208.010277 404.337497 
L 208.23083 404.367297 
L 208.451383 405.247506 
L 208.671937 405.514794 
L 209.113043 405.591905 
L 209.333597 405.733353 
L 209.995257 405.733353 
L 210.656917 406.109079 
L 210.87747 406.109079 
L 211.098024 407.237067 
L 211.318577 410.083988 
L 211.53913 410.083988 
L 211.759684 410.369605 
L 211.980237 411.963156 
L 212.421344 411.963156 
L 212.641897 415.988701 
L 212.862451 415.988701 
L 213.303557 416.100855 
L 213.524111 417.719472 
L 213.744664 418.306439 
L 214.626877 418.689322 
L 214.847431 419.18625 
L 215.288538 419.18625 
L 215.509091 420.663561 
L 215.950198 420.663779 
L 216.170751 421.136401 
L 216.391304 421.136401 
L 216.611858 424.064102 
L 216.832411 424.081397 
L 217.052964 424.543192 
L 217.273518 424.605382 
L 217.714625 425.128986 
L 217.935178 426.427607 
L 218.155731 426.427607 
L 218.376285 426.540018 
L 218.596838 430.34727 
L 218.817391 430.34727 
L 219.037945 430.563309 
L 219.258498 430.563309 
L 219.479051 431.358241 
L 219.920158 433.594078 
L 220.361265 433.594078 
L 220.581818 435.496145 
L 220.802372 436.289732 
L 221.022925 436.424961 
L 221.243478 437.801392 
L 221.905138 437.801392 
L 222.125692 438.030896 
L 222.566798 438.030896 
L 222.787352 438.788282 
L 223.228458 438.851146 
L 223.449012 438.851146 
L 223.669565 439.106125 
L 224.110672 439.106125 
L 224.331225 439.438638 
L 226.095652 439.506454 
L 226.316206 440.798639 
L 226.757312 440.832257 
L 226.977866 441.345391 
L 227.639526 441.401221 
L 228.521739 441.401221 
L 228.742292 442.589295 
L 228.962846 442.589295 
L 229.183399 442.995406 
L 229.403953 443.104768 
L 229.624506 443.841713 
L 231.168379 443.907489 
L 231.388933 444.371365 
L 231.83004 444.404315 
L 232.050593 444.691637 
L 232.271146 444.691637 
L 232.4917 445.069647 
L 232.712253 445.069647 
L 232.932806 445.657967 
L 233.81502 445.783008 
L 234.035573 446.54155 
L 234.697233 446.89113 
L 235.358893 446.89113 
L 235.579447 447.095245 
L 235.8 447.12148 
L 236.020553 447.291252 
L 236.46166 447.291252 
L 236.902767 447.421917 
L 237.12332 447.421917 
L 237.343874 447.566657 
L 238.226087 447.575411 
L 238.44664 449.67544 
L 239.1083 449.675779 
L 239.549407 450.70425 
L 239.76996 453.58232 
L 240.872727 453.66792 
L 241.093281 453.722162 
L 241.313834 453.993055 
L 242.637154 454.005843 
L 243.078261 454.124047 
L 243.739921 454.164777 
L 244.401581 454.514881 
L 245.283794 454.514881 
L 245.504348 454.736908 
L 245.945455 454.800301 
L 246.166008 455.507627 
L 247.930435 455.611031 
L 248.371542 455.687216 
L 248.812648 455.687216 
L 249.033202 455.995293 
L 249.694862 456.108564 
L 249.915415 456.123473 
L 250.135968 456.408754 
L 251.459289 456.456173 
L 252.120949 456.692443 
L 253.223715 456.783076 
L 253.664822 456.864728 
L 254.988142 456.966724 
L 255.208696 456.993166 
L 255.429249 457.143554 
L 257.193676 457.143554 
L 257.414229 457.553458 
L 260.281423 457.771989 
L 260.501976 458.298654 
L 262.70751 458.351344 
L 262.928063 462.17817 
L 267.33913 462.26322 
L 267.559684 462.59238 
L 269.103557 462.662073 
L 269.324111 462.969735 
L 269.544664 462.969735 
L 269.765217 463.584218 
L 271.309091 463.670724 
L 271.529644 463.829894 
L 275.720158 463.932872 
L 276.161265 464.016368 
L 277.043478 464.047605 
L 280.131225 464.121736 
L 280.572332 464.192773 
L 281.895652 464.192773 
L 282.116206 464.590287 
L 283.439526 464.699054 
L 287.850593 464.779822 
L 288.071146 464.943837 
L 288.2917 465.560344 
L 290.717787 465.608735 
L 290.93834 466.121273 
L 295.56996 466.147898 
L 295.790514 466.380875 
L 301.083794 466.485602 
L 301.524901 466.555075 
L 302.186561 466.555075 
L 302.407115 466.928824 
L 305.274308 466.929018 
L 305.715415 467.285338 
L 305.935968 468.064363 
L 307.700395 468.139619 
L 307.920949 468.308142 
L 308.582609 468.308142 
L 308.803162 468.738705 
L 312.111462 468.752038 
L 312.552569 468.860705 
L 314.316996 468.860705 
L 314.758103 469.137147 
L 327.109091 469.239329 
L 327.550198 469.300551 
L 328.211858 469.300551 
L 328.432411 469.624654 
L 330.196838 469.730367 
L 330.417391 470.234824 
L 334.387352 470.234824 
L 334.607905 470.438137 
L 335.710672 470.448424 
L 335.931225 470.687404 
L 336.372332 470.687404 
L 336.592885 470.970022 
L 341.224506 470.970022 
L 341.445059 471.259034 
L 345.194466 471.350106 
L 345.41502 472.020489 
L 352.031621 472.121932 
L 352.693281 472.187286 
L 357.766008 472.293744 
L 357.986561 472.717744 
L 365.264822 472.772173 
L 365.705929 472.841066 
L 370.116996 472.841066 
L 370.337549 473.372085 
L 371.440316 473.372085 
L 371.66087 473.623888 
L 372.32253 473.623888 
L 372.543083 473.953476 
L 382.026877 473.979681 
L 382.247431 474.459601 
L 387.981818 474.459601 
L 388.202372 474.642557 
L 391.069565 474.642557 
L 391.290119 474.825662 
L 392.833992 474.863983 
L 393.716206 475.132878 
L 397.686166 475.215074 
L 398.568379 475.246752 
L 399.671146 475.251103 
L 399.8917 475.499944 
L 402.097233 475.499944 
L 402.317787 475.664338 
L 402.53834 475.664338 
L 402.758893 475.828461 
L 406.5083 475.913084 
L 407.390514 475.947874 
L 409.154941 476.030401 
L 410.037154 476.298012 
L 410.257708 476.643618 
L 411.581028 476.643618 
L 411.581028 476.643618 
" clip-path="url(#p3ad412e384)" style="fill: none; stroke: #1f77b4; stroke-width: 2; stroke-linecap: square"/>
   </g>
   <g id="line2d_24">
    <path d="M 191.027668 89.28 
L 191.248221 142.927722 
L 191.468775 156.524835 
L 191.689328 160.628004 
L 191.909881 171.158622 
L 192.130435 175.277131 
L 192.571542 218.674246 
L 193.012648 229.118132 
L 193.453755 243.79658 
L 193.674308 246.578077 
L 194.115415 268.042472 
L 194.556522 283.866697 
L 195.218182 297.528074 
L 195.438735 303.758565 
L 195.659289 314.306363 
L 195.879842 317.177503 
L 196.100395 318.591923 
L 196.320949 322.928413 
L 196.762055 322.928413 
L 196.982609 328.139222 
L 197.203162 341.189279 
L 197.644269 348.108827 
L 197.864822 348.300422 
L 198.085375 353.414211 
L 199.408696 363.123506 
L 199.629249 363.156236 
L 200.070356 364.126241 
L 200.290909 365.663035 
L 200.511462 365.663035 
L 200.732016 375.924511 
L 200.952569 376.063574 
L 201.173123 378.165411 
L 201.834783 378.718525 
L 202.055336 378.781578 
L 202.275889 380.994603 
L 202.496443 381.071112 
L 202.716996 383.698977 
L 202.937549 383.698977 
L 203.158103 385.239766 
L 203.378656 385.538201 
L 203.819763 392.327538 
L 204.26087 392.931426 
L 204.481423 392.931426 
L 204.701976 393.330707 
L 205.143083 395.44267 
L 205.363636 395.47573 
L 205.58419 396.921094 
L 205.804743 396.948389 
L 206.025296 397.549892 
L 206.24585 398.989541 
L 206.466403 398.989541 
L 206.686957 399.230298 
L 206.90751 399.636281 
L 207.128063 403.620598 
L 207.348617 403.935146 
L 207.56917 403.935146 
L 207.789723 404.502397 
L 208.010277 404.502397 
L 208.23083 405.416967 
L 208.451383 408.591814 
L 208.89249 408.918575 
L 209.113043 412.837304 
L 209.333597 413.558683 
L 209.55415 413.558683 
L 209.774704 420.249823 
L 209.995257 420.280661 
L 210.21581 421.330232 
L 210.436364 421.330232 
L 210.656917 424.867099 
L 210.87747 425.326857 
L 211.098024 425.501456 
L 211.318577 426.562169 
L 211.759684 426.562169 
L 212.200791 427.06638 
L 212.421344 428.0955 
L 212.862451 428.0955 
L 213.303557 429.051179 
L 214.406324 429.40094 
L 214.626877 430.507653 
L 214.847431 432.612197 
L 216.170751 432.693295 
L 216.391304 432.928815 
L 216.611858 432.930623 
L 216.832411 433.639172 
L 217.273518 433.639172 
L 217.494071 433.862111 
L 218.376285 433.862111 
L 218.596838 434.55077 
L 219.037945 434.656379 
L 219.479051 434.656379 
L 219.920158 435.553058 
L 221.022925 435.569918 
L 221.243478 435.941094 
L 221.464032 437.423525 
L 221.684585 437.423525 
L 221.905138 439.291821 
L 222.787352 439.480693 
L 223.007905 439.480693 
L 223.228458 440.146095 
L 224.110672 440.146095 
L 224.331225 440.375999 
L 225.654545 440.422794 
L 225.875099 440.966727 
L 226.095652 440.966727 
L 226.316206 441.982315 
L 226.536759 441.982315 
L 226.757312 442.119227 
L 227.418972 442.134885 
L 227.860079 442.232502 
L 229.403953 442.33595 
L 230.065613 442.416941 
L 230.286166 442.684683 
L 230.727273 444.133707 
L 231.168379 444.162035 
L 231.388933 444.602974 
L 231.83004 444.602974 
L 232.271146 444.851158 
L 232.932806 444.851158 
L 233.15336 445.158668 
L 233.373913 447.014622 
L 233.81502 447.099997 
L 235.8 447.193019 
L 236.241107 447.271081 
L 236.46166 447.635452 
L 236.902767 447.635452 
L 237.12332 448.099545 
L 238.226087 448.113412 
L 238.44664 448.516544 
L 238.667194 449.21177 
L 239.1083 449.21177 
L 239.328854 449.398872 
L 240.211067 449.42026 
L 240.431621 449.686419 
L 240.652174 449.73202 
L 240.872727 450.127086 
L 241.534387 450.127086 
L 241.754941 450.904381 
L 242.416601 450.904381 
L 242.637154 451.152164 
L 242.857708 451.581677 
L 243.298814 451.692695 
L 243.960474 451.692695 
L 244.181028 451.867665 
L 245.724901 451.941577 
L 246.386561 451.941577 
L 246.607115 452.126546 
L 247.048221 452.209224 
L 247.709881 452.800282 
L 248.592095 452.800282 
L 248.812648 453.134139 
L 249.033202 453.210215 
L 249.253755 453.48082 
L 251.018182 453.487635 
L 251.238735 453.769878 
L 251.459289 453.769878 
L 251.679842 454.10746 
L 252.782609 454.166869 
L 253.003162 456.734108 
L 253.664822 456.75514 
L 253.885375 456.948007 
L 254.988142 456.948007 
L 255.208696 457.63954 
L 264.69249 457.725897 
L 264.913043 459.491116 
L 265.35415 459.491116 
L 265.574704 459.665091 
L 268.221344 459.761637 
L 268.441897 460.052836 
L 269.324111 460.052836 
L 269.544664 460.216259 
L 269.765217 460.216259 
L 269.985771 460.606659 
L 271.970751 460.606659 
L 272.191304 460.753914 
L 275.058498 460.786012 
L 275.279051 461.589551 
L 281.895652 461.683304 
L 282.557312 462.061426 
L 283.218972 462.158367 
L 283.439526 462.298577 
L 283.660079 462.298577 
L 283.880632 462.514401 
L 286.527273 462.560166 
L 286.747826 462.857672 
L 287.850593 462.911162 
L 288.2917 463.003402 
L 290.27668 463.02787 
L 290.497233 465.011412 
L 291.820553 465.013524 
L 292.041107 468.180569 
L 292.702767 468.180569 
L 292.92332 469.070115 
L 293.805534 469.070115 
L 294.24664 469.209096 
L 294.467194 469.209096 
L 294.687747 469.97052 
L 296.452174 470.008139 
L 296.672727 470.470869 
L 297.996047 470.493509 
L 298.216601 471.782379 
L 299.760474 471.782379 
L 299.981028 472.527624 
L 300.201581 472.527624 
L 300.422134 475.814591 
L 300.863241 475.814591 
L 301.083794 476.161716 
L 301.745455 476.161716 
L 301.966008 476.637405 
L 303.289328 476.637405 
L 303.509881 476.861034 
L 307.920949 476.862633 
L 308.141502 477.161766 
L 312.773123 477.163756 
L 313.434783 477.500709 
L 316.52253 477.505138 
L 316.743083 479.259181 
L 317.404743 479.259181 
L 317.625296 479.953894 
L 317.84585 479.953894 
L 318.066403 480.769008 
L 318.50751 480.801699 
L 318.728063 481.37836 
L 319.16917 481.454564 
L 320.051383 481.454564 
L 320.271937 481.778269 
L 320.49249 481.778269 
L 320.713043 482.116819 
L 322.256917 482.116819 
L 322.47747 482.370367 
L 324.241897 482.420413 
L 324.462451 482.560757 
L 329.755731 482.724356 
L 329.976285 482.929849 
L 334.387352 482.987296 
L 334.828458 483.050727 
L 335.049012 483.435543 
L 337.033992 483.532462 
L 337.254545 483.561696 
L 337.475099 483.856433 
L 338.357312 483.85725 
L 338.798419 484.037289 
L 341.003953 484.143965 
L 341.224506 484.396173 
L 344.0917 484.506906 
L 344.532806 484.623878 
L 344.973913 484.691912 
L 345.194466 485.102029 
L 346.958893 485.102029 
L 347.4 485.755443 
L 350.928854 485.858825 
L 351.36996 486.125886 
L 351.811067 486.125886 
L 352.031621 486.390002 
L 352.693281 486.537153 
L 353.796047 486.537153 
L 354.016601 486.759148 
L 355.339921 486.828777 
L 355.560474 486.966707 
L 356.442688 486.969528 
L 356.883794 487.129803 
L 357.766008 487.136682 
L 358.207115 487.25757 
L 358.427668 487.25757 
L 358.648221 487.800033 
L 359.971542 487.800033 
L 360.192095 488.383441 
L 360.633202 488.383441 
L 360.853755 488.672397 
L 362.618182 488.692161 
L 362.838735 488.973217 
L 363.279842 489.067887 
L 365.705929 489.102643 
L 365.926482 489.371306 
L 367.470356 489.395397 
L 367.690909 489.654882 
L 370.116996 489.698388 
L 370.337549 489.84084 
L 376.95415 489.879217 
L 377.174704 490.035568 
L 378.718577 490.138172 
L 380.262451 490.203649 
L 380.924111 490.234869 
L 381.144664 490.391528 
L 384.673518 490.442658 
L 384.894071 490.591692 
L 386.217391 490.701237 
L 386.437945 491.091166 
L 392.833992 491.14675 
L 393.054545 491.531498 
L 393.495652 491.531498 
L 393.716206 491.68652 
L 395.260079 491.694149 
L 395.480632 492.305626 
L 400.55336 492.350464 
L 400.994466 492.444587 
L 411.581028 492.48 
L 411.581028 492.48 
" clip-path="url(#p3ad412e384)" style="fill: none; stroke: #ff7f0e; stroke-width: 2; stroke-linecap: square"/>
   </g>
   <g id="line2d_25">
    <path d="M 191.027668 89.28 
L 191.468775 133.38954 
L 192.130435 172.487259 
L 192.350988 198.602416 
L 193.012648 207.46016 
L 193.453755 216.304976 
L 193.674308 216.546091 
L 193.894862 217.062289 
L 194.115415 226.900631 
L 194.335968 226.903305 
L 194.777075 236.841173 
L 194.997628 238.914922 
L 195.218182 239.099259 
L 195.659289 239.117235 
L 195.879842 240.320523 
L 197.203162 240.418246 
L 197.423715 241.471731 
L 197.864822 241.471731 
L 198.085375 241.601232 
L 199.408696 241.601232 
L 199.629249 242.782521 
L 199.849802 243.017901 
L 203.819763 243.017901 
L 204.040316 244.767186 
L 236.020553 244.767186 
L 236.241107 245.125041 
L 243.078261 245.125041 
L 243.298814 246.83177 
L 254.767589 246.83177 
L 254.988142 247.470495 
L 260.06087 247.516963 
L 260.281423 247.711253 
L 269.324111 247.821065 
L 274.176285 248.06632 
L 274.837945 248.06632 
L 275.279051 248.191768 
L 293.143874 248.196819 
L 293.364427 248.388323 
L 366.588142 248.397656 
L 366.808696 248.754747 
L 368.132016 248.754747 
L 368.352569 248.972496 
L 369.014229 249.015452 
L 384.011858 249.061303 
L 384.232411 249.222914 
L 411.581028 249.222914 
L 411.581028 249.222914 
" clip-path="url(#p3ad412e384)" style="fill: none; stroke: #2ca02c; stroke-width: 2; stroke-linecap: square"/>
   </g>
   <g id="line2d_26">
    <path d="M 191.027668 89.28 
L 191.468775 133.38954 
L 192.130435 172.487259 
L 192.350988 198.602416 
L 193.012648 207.46016 
L 193.453755 216.304976 
L 193.674308 216.546091 
L 193.894862 217.062289 
L 194.115415 226.900631 
L 194.335968 226.903305 
L 194.777075 236.841173 
L 194.997628 238.914922 
L 195.218182 239.099259 
L 195.659289 239.117235 
L 195.879842 240.320523 
L 197.203162 240.418246 
L 197.423715 241.471731 
L 197.864822 241.471731 
L 198.085375 241.601232 
L 199.408696 241.601232 
L 199.629249 242.782521 
L 199.849802 243.017901 
L 203.819763 243.017901 
L 204.040316 244.767186 
L 236.020553 244.767186 
L 236.241107 245.125041 
L 243.078261 245.125041 
L 243.298814 246.83177 
L 254.767589 246.83177 
L 254.988142 247.470495 
L 260.06087 247.516963 
L 260.281423 247.711253 
L 269.324111 247.821065 
L 274.176285 248.06632 
L 274.837945 248.06632 
L 275.279051 248.191768 
L 293.143874 248.196819 
L 293.364427 248.388323 
L 366.588142 248.397656 
L 366.808696 248.754747 
L 368.132016 248.754747 
L 368.352569 248.972496 
L 369.014229 249.015452 
L 384.011858 249.061303 
L 384.232411 249.222914 
L 411.581028 249.222914 
L 411.581028 249.222914 
" clip-path="url(#p3ad412e384)" style="fill: none; stroke: #d62728; stroke-width: 2; stroke-linecap: square"/>
   </g>
   <g id="line2d_27">
    <path d="M 191.027668 89.28 
L 191.248221 142.658176 
L 191.468775 159.882133 
L 191.909881 176.121045 
L 192.350988 201.772731 
L 192.571542 209.69329 
L 192.792095 211.009478 
L 193.233202 237.68486 
L 193.453755 249.700232 
L 193.674308 251.623245 
L 193.894862 251.742939 
L 194.115415 256.698323 
L 194.556522 273.734455 
L 194.777075 276.447557 
L 194.997628 288.602461 
L 195.218182 289.452096 
L 195.438735 292.101102 
L 195.659289 292.101102 
L 195.879842 305.937109 
L 196.100395 311.61092 
L 196.320949 311.979269 
L 196.541502 312.644627 
L 196.762055 312.733817 
L 197.203162 319.220826 
L 197.644269 329.875679 
L 197.864822 332.311728 
L 198.305929 332.311728 
L 198.526482 334.61483 
L 198.747036 340.033368 
L 198.967589 340.836265 
L 199.188142 340.873735 
L 199.408696 344.713726 
L 199.629249 344.713726 
L 199.849802 347.249552 
L 200.070356 347.249552 
L 200.290909 356.026222 
L 200.511462 356.026777 
L 200.732016 356.667048 
L 200.952569 366.867335 
L 201.173123 366.867335 
L 201.393676 367.152769 
L 201.614229 374.513701 
L 201.834783 376.43477 
L 202.055336 379.941013 
L 202.937549 382.285204 
L 203.158103 384.050022 
L 203.599209 384.080257 
L 203.819763 385.623705 
L 204.040316 386.090888 
L 204.26087 386.090888 
L 204.481423 392.289452 
L 204.92253 392.540819 
L 205.143083 392.540819 
L 205.363636 393.171838 
L 205.58419 393.321725 
L 205.804743 394.018372 
L 206.466403 394.369924 
L 206.90751 395.111582 
L 207.128063 398.033635 
L 207.348617 398.053724 
L 207.56917 399.463211 
L 207.789723 399.760481 
L 208.23083 401.911235 
L 208.89249 402.174085 
L 209.113043 402.226198 
L 209.333597 403.906509 
L 209.774704 404.29093 
L 209.995257 404.340371 
L 210.21581 407.289743 
L 210.656917 409.00758 
L 211.098024 409.00758 
L 211.318577 411.71348 
L 211.980237 411.735825 
L 212.421344 412.17938 
L 212.641897 412.17938 
L 212.862451 415.100776 
L 213.303557 415.116349 
L 213.524111 415.31479 
L 213.744664 416.694492 
L 213.965217 419.502761 
L 214.185771 419.502761 
L 214.406324 422.331998 
L 214.626877 422.331998 
L 214.847431 423.119744 
L 215.067984 423.123223 
L 215.288538 423.419813 
L 215.509091 423.419813 
L 215.729644 423.663213 
L 215.950198 423.663213 
L 216.170751 424.503228 
L 216.391304 426.268988 
L 216.832411 426.357344 
L 217.052964 426.357344 
L 217.273518 426.610442 
L 217.494071 426.610442 
L 217.714625 427.007813 
L 218.596838 427.06134 
L 218.817391 427.729478 
L 219.037945 427.729478 
L 219.258498 428.042745 
L 220.361265 428.042745 
L 220.581818 428.983161 
L 220.802372 429.24993 
L 221.022925 429.24993 
L 221.243478 430.326908 
L 221.684585 430.326908 
L 221.905138 430.689135 
L 222.346245 430.775587 
L 222.566798 430.861235 
L 222.787352 431.562866 
L 224.331225 431.562896 
L 224.992885 432.023808 
L 226.316206 432.089938 
L 226.536759 432.71859 
L 228.301186 432.721935 
L 228.521739 433.070777 
L 228.962846 433.070777 
L 229.403953 434.005126 
L 230.727273 434.074383 
L 230.947826 434.401544 
L 231.168379 434.401544 
L 231.388933 434.601564 
L 231.609486 435.018999 
L 232.050593 435.083157 
L 232.4917 435.152673 
L 233.594466 435.243259 
L 234.035573 435.503534 
L 234.917787 435.57162 
L 235.13834 435.806105 
L 235.579447 435.8852 
L 235.8 435.8852 
L 236.020553 436.207441 
L 236.241107 439.038114 
L 236.682213 439.048934 
L 236.902767 439.440335 
L 237.12332 439.440335 
L 237.343874 441.190587 
L 237.78498 441.262998 
L 238.005534 442.46708 
L 238.226087 442.480904 
L 238.44664 442.981597 
L 238.667194 442.981597 
L 238.887747 447.246841 
L 239.549407 447.289507 
L 239.76996 447.495456 
L 240.211067 447.507829 
L 240.431621 447.903624 
L 241.093281 448.187486 
L 241.975494 449.659469 
L 242.196047 449.659469 
L 242.637154 449.878882 
L 243.298814 449.947587 
L 243.519368 452.378362 
L 243.960474 452.378362 
L 244.622134 452.831918 
L 245.063241 453.1465 
L 245.283794 453.1465 
L 245.724901 454.025315 
L 245.945455 455.417366 
L 246.166008 455.861684 
L 247.048221 455.861684 
L 247.268775 456.261221 
L 247.489328 456.261221 
L 247.930435 456.986825 
L 248.150988 456.986825 
L 248.371542 457.961791 
L 248.592095 459.648695 
L 249.253755 459.692997 
L 249.915415 460.300734 
L 250.356522 460.300734 
L 250.577075 460.91838 
L 251.018182 460.91838 
L 251.238735 461.03184 
L 251.459289 461.46209 
L 252.120949 461.46209 
L 252.341502 461.71281 
L 252.562055 461.71281 
L 253.003162 461.824611 
L 253.223715 461.824611 
L 253.444269 462.077344 
L 254.767589 462.10102 
L 254.988142 462.353571 
L 255.649802 462.531976 
L 255.870356 462.531976 
L 256.090909 463.065505 
L 256.532016 463.130765 
L 256.752569 463.740086 
L 258.296443 463.740086 
L 258.516996 464.082046 
L 260.06087 464.134108 
L 260.281423 464.271832 
L 262.70751 464.376965 
L 262.928063 464.643447 
L 264.03083 464.678848 
L 264.251383 465.134385 
L 264.913043 465.134462 
L 265.133597 465.368454 
L 266.01581 465.368709 
L 266.236364 465.833961 
L 266.456917 465.833961 
L 266.67747 466.138034 
L 267.33913 466.180026 
L 267.780237 466.180026 
L 268.000791 466.334847 
L 268.883004 466.339996 
L 269.324111 467.951176 
L 269.765217 468.073889 
L 271.750198 468.080077 
L 271.970751 468.393032 
L 273.955731 468.501257 
L 274.176285 469.078765 
L 279.469565 469.078765 
L 279.690119 469.513385 
L 286.306719 469.540283 
L 286.527273 469.951421 
L 286.968379 469.951421 
L 287.188933 470.889041 
L 291.379447 470.992596 
L 292.26166 471.023212 
L 294.467194 471.037591 
L 294.687747 471.343438 
L 295.790514 471.343438 
L 296.011067 471.706733 
L 298.657708 471.706733 
L 299.098814 471.830944 
L 307.479842 471.891888 
L 308.141502 471.94573 
L 310.347036 472.085459 
L 315.419763 472.1846 
L 315.86087 472.291209 
L 316.301976 472.369491 
L 316.743083 472.369491 
L 316.963636 472.513492 
L 318.728063 472.51864 
L 318.948617 472.72278 
L 323.13913 472.799987 
L 323.359684 472.94226 
L 324.021344 472.947367 
L 324.241897 473.113659 
L 324.462451 473.113659 
L 324.683004 473.498842 
L 326.006324 473.498842 
L 326.226877 473.688575 
L 328.873518 473.710442 
L 332.181818 473.710727 
L 332.402372 473.879986 
L 334.166798 473.954234 
L 334.607905 474.054608 
L 337.033992 474.094975 
L 337.254545 474.462852 
L 340.783399 474.573441 
L 341.003953 474.93393 
L 342.106719 474.969104 
L 346.07668 474.988039 
L 346.297233 475.587904 
L 347.841107 475.606857 
L 348.06166 476.403099 
L 349.164427 476.403099 
L 349.38498 476.983969 
L 349.826087 476.983969 
L 350.04664 478.044516 
L 355.339921 478.108595 
L 355.560474 478.351781 
L 357.324901 478.457368 
L 357.545455 478.46418 
L 357.766008 478.680755 
L 359.530435 478.701455 
L 359.971542 478.813898 
L 360.412648 478.813898 
L 360.633202 479.128092 
L 361.515415 479.205607 
L 362.618182 479.299973 
L 365.044269 479.394441 
L 365.705929 479.447315 
L 365.926482 479.447315 
L 366.147036 479.618094 
L 367.690909 479.682717 
L 368.132016 479.746714 
L 369.455336 479.746714 
L 369.896443 480.140914 
L 374.086957 480.168337 
L 374.30751 480.50803 
L 375.189723 480.50803 
L 375.410277 480.742423 
L 376.071937 480.826287 
L 377.395257 480.896435 
L 377.61581 480.896435 
L 377.836364 481.105068 
L 379.600791 481.133308 
L 379.821344 481.250096 
L 380.041897 481.576876 
L 386.658498 481.672686 
L 387.099605 481.779571 
L 402.53834 481.846535 
L 402.758893 482.219576 
L 402.979447 482.219576 
L 403.2 482.438462 
L 403.420553 482.45931 
L 403.641107 483.1121 
L 404.302767 483.1121 
L 404.52332 483.256263 
L 405.18498 483.256263 
L 405.405534 483.695883 
L 407.16996 483.732723 
L 407.611067 483.832378 
L 408.934387 483.885042 
L 409.596047 483.99524 
L 409.816601 483.99524 
L 410.037154 484.155756 
L 410.257708 484.155756 
L 410.478261 484.506105 
L 411.581028 484.506105 
L 411.581028 484.506105 
" clip-path="url(#p3ad412e384)" style="fill: none; stroke: #9467bd; stroke-width: 2; stroke-linecap: square"/>
   </g>
   <g id="line2d_28">
    <path d="M 191.027668 89.28 
L 191.689328 163.123824 
L 192.571542 198.465594 
L 192.792095 198.927117 
L 193.012648 199.919941 
L 193.453755 217.138551 
L 193.674308 248.994997 
L 193.894862 250.060891 
L 194.335968 250.549077 
L 194.777075 250.630326 
L 194.997628 253.156838 
L 195.218182 253.337004 
L 196.541502 253.337004 
L 196.982609 255.646462 
L 204.92253 255.646462 
L 205.143083 260.076571 
L 411.581028 260.076571 
L 411.581028 260.076571 
" clip-path="url(#p3ad412e384)" style="fill: none; stroke: #8c564b; stroke-width: 2; stroke-linecap: square"/>
   </g>
   <g id="line2d_29">
    <path d="M 191.027668 89.28 
L 191.689328 163.123824 
L 192.571542 198.465594 
L 192.792095 198.927117 
L 193.012648 199.919941 
L 193.453755 217.138551 
L 193.674308 248.994997 
L 193.894862 250.060891 
L 194.335968 250.549077 
L 194.777075 250.630326 
L 194.997628 253.156838 
L 195.218182 253.337004 
L 196.541502 253.337004 
L 196.982609 255.646462 
L 204.92253 255.646462 
L 205.143083 260.076571 
L 411.581028 260.076571 
L 411.581028 260.076571 
" clip-path="url(#p3ad412e384)" style="fill: none; stroke: #e377c2; stroke-width: 2; stroke-linecap: square"/>
   </g>
   <g id="line2d_30">
    <path d="M 191.027668 89.28 
L 191.468775 129.63505 
L 191.689328 132.207002 
L 191.909881 154.470053 
L 192.130435 156.770621 
L 192.792095 188.236245 
L 193.012648 202.65365 
L 193.233202 208.339697 
L 193.453755 227.468306 
L 194.335968 254.872218 
L 194.556522 254.872218 
L 194.777075 254.997142 
L 194.997628 259.310255 
L 195.218182 260.169937 
L 195.438735 260.169937 
L 195.879842 264.517554 
L 196.100395 264.517554 
L 196.320949 265.399773 
L 196.541502 265.399773 
L 196.762055 267.747233 
L 196.982609 267.747233 
L 197.203162 268.041064 
L 197.644269 268.041064 
L 198.085375 268.167708 
L 198.747036 270.471935 
L 199.188142 270.526242 
L 199.408696 271.936318 
L 199.629249 271.936318 
L 200.290909 274.812996 
L 200.511462 276.268383 
L 200.732016 276.268383 
L 200.952569 276.503896 
L 202.055336 276.506289 
L 202.496443 276.850228 
L 203.158103 276.919627 
L 203.378656 276.967652 
L 203.599209 277.151905 
L 205.143083 277.151905 
L 205.363636 277.804856 
L 208.010277 277.879526 
L 208.23083 278.342021 
L 209.995257 278.342021 
L 210.436364 278.458053 
L 211.980237 278.540032 
L 212.200791 278.670091 
L 212.862451 278.670091 
L 213.303557 278.792437 
L 213.524111 278.792437 
L 213.744664 279.095514 
L 215.509091 279.194072 
L 215.729644 279.669802 
L 219.258498 279.70257 
L 219.479051 280.107416 
L 219.920158 280.107416 
L 220.140711 280.271104 
L 222.346245 280.306642 
L 222.566798 281.469843 
L 222.787352 281.662898 
L 223.669565 281.664432 
L 224.110672 281.869117 
L 226.536759 281.952496 
L 228.080632 282.157606 
L 228.962846 282.157606 
L 229.183399 282.296241 
L 231.168379 282.296241 
L 231.388933 283.963827 
L 243.298814 284.073319 
L 243.519368 284.572862 
L 244.842688 284.572862 
L 245.063241 285.013936 
L 245.724901 285.013936 
L 246.166008 285.130928 
L 248.592095 285.130928 
L 248.812648 285.274124 
L 259.619763 285.274124 
L 259.840316 285.417783 
L 265.795257 285.417783 
L 266.01581 285.692125 
L 269.544664 285.777109 
L 269.765217 285.908795 
L 270.206324 285.908795 
L 270.426877 286.058686 
L 280.572332 286.058686 
L 280.792885 286.284927 
L 286.306719 286.284927 
L 286.527273 286.441404 
L 288.732806 286.441404 
L 288.95336 286.6463 
L 292.92332 286.6463 
L 293.143874 287.059186 
L 297.775494 287.070085 
L 297.996047 287.319499 
L 298.216601 287.319499 
L 298.437154 287.616719 
L 298.657708 288.649726 
L 299.760474 288.649726 
L 299.981028 293.378369 
L 300.422134 293.506077 
L 301.524901 293.506077 
L 301.745455 293.82568 
L 301.966008 293.82568 
L 302.186561 294.797952 
L 303.289328 294.808184 
L 303.509881 294.994199 
L 304.833202 295.063254 
L 305.053755 295.374584 
L 308.582609 295.432551 
L 308.803162 295.647551 
L 315.640316 295.677517 
L 315.86087 295.857569 
L 329.976285 295.959796 
L 332.622925 295.969385 
L 337.916206 295.974034 
L 338.136759 296.299186 
L 339.680632 296.299215 
L 339.901186 296.533484 
L 406.067194 296.602977 
L 406.5083 296.661999 
L 411.581028 296.701857 
L 411.581028 296.701857 
" clip-path="url(#p3ad412e384)" style="fill: none; stroke: #7f7f7f; stroke-width: 2; stroke-linecap: square"/>
   </g>
   <g id="line2d_31">
    <path d="M 191.027668 89.28 
L 191.468775 129.63505 
L 191.689328 132.207002 
L 191.909881 154.470053 
L 192.130435 156.770621 
L 192.792095 188.236245 
L 193.012648 202.65365 
L 193.233202 208.339697 
L 193.453755 227.468306 
L 194.335968 254.872218 
L 194.556522 254.872218 
L 194.777075 254.997142 
L 194.997628 259.310255 
L 195.218182 260.169937 
L 195.438735 260.169937 
L 195.879842 264.517554 
L 196.100395 264.517554 
L 196.320949 265.399773 
L 196.541502 265.399773 
L 196.762055 267.747233 
L 196.982609 267.747233 
L 197.203162 268.041064 
L 197.644269 268.041064 
L 198.085375 268.167708 
L 198.747036 270.471935 
L 199.188142 270.526242 
L 199.408696 271.936318 
L 199.629249 271.936318 
L 200.290909 274.812996 
L 200.511462 276.268383 
L 200.732016 276.268383 
L 200.952569 276.503896 
L 202.055336 276.506289 
L 202.496443 276.850228 
L 203.158103 276.919627 
L 203.378656 276.967652 
L 203.599209 277.151905 
L 205.143083 277.151905 
L 205.363636 277.804856 
L 208.010277 277.879526 
L 208.23083 278.342021 
L 209.995257 278.342021 
L 210.436364 278.458053 
L 211.980237 278.540032 
L 212.200791 278.670091 
L 212.862451 278.670091 
L 213.303557 278.792437 
L 213.524111 278.792437 
L 213.744664 279.095514 
L 215.509091 279.194072 
L 215.729644 279.669802 
L 219.258498 279.70257 
L 219.479051 280.107416 
L 219.920158 280.107416 
L 220.140711 280.271104 
L 222.346245 280.306642 
L 222.566798 281.469843 
L 222.787352 281.662898 
L 223.669565 281.664432 
L 224.110672 281.869117 
L 226.536759 281.952496 
L 228.080632 282.157606 
L 228.962846 282.157606 
L 229.183399 282.296241 
L 231.168379 282.296241 
L 231.388933 283.963827 
L 243.298814 284.073319 
L 243.519368 284.572862 
L 244.842688 284.572862 
L 245.063241 285.013936 
L 245.724901 285.013936 
L 246.166008 285.130928 
L 248.592095 285.130928 
L 248.812648 285.274124 
L 259.619763 285.274124 
L 259.840316 285.417783 
L 265.795257 285.417783 
L 266.01581 285.692125 
L 269.544664 285.777109 
L 269.765217 285.908795 
L 270.206324 285.908795 
L 270.426877 286.058686 
L 280.572332 286.058686 
L 280.792885 286.284927 
L 286.306719 286.284927 
L 286.527273 286.441404 
L 288.732806 286.441404 
L 288.95336 286.6463 
L 292.92332 286.6463 
L 293.143874 287.059186 
L 297.775494 287.070085 
L 297.996047 287.319499 
L 298.216601 287.319499 
L 298.437154 287.616719 
L 298.657708 288.649726 
L 299.760474 288.649726 
L 299.981028 293.378369 
L 300.422134 293.506077 
L 301.524901 293.506077 
L 301.745455 293.82568 
L 301.966008 293.82568 
L 302.186561 294.797952 
L 303.289328 294.808184 
L 303.509881 294.994199 
L 304.833202 295.063254 
L 305.053755 295.374584 
L 308.582609 295.432551 
L 308.803162 295.647551 
L 315.640316 295.677517 
L 315.86087 295.857569 
L 329.976285 295.959796 
L 332.622925 295.969385 
L 337.916206 295.974034 
L 338.136759 296.299186 
L 339.680632 296.299215 
L 339.901186 296.533484 
L 406.067194 296.602977 
L 406.5083 296.661999 
L 411.581028 296.701857 
L 411.581028 296.701857 
" clip-path="url(#p3ad412e384)" style="fill: none; stroke: #bcbd22; stroke-width: 2; stroke-linecap: square"/>
   </g>
   <g id="patch_3">
    <path d="M 180 512.64 
L 180 69.12 
" style="fill: none; stroke: #000000; stroke-width: 0.8; stroke-linejoin: miter; stroke-linecap: square"/>
   </g>
   <g id="patch_4">
    <path d="M 422.608696 512.64 
L 422.608696 69.12 
" style="fill: none; stroke: #000000; stroke-width: 0.8; stroke-linejoin: miter; stroke-linecap: square"/>
   </g>
   <g id="patch_5">
    <path d="M 180 512.64 
L 422.608696 512.64 
" style="fill: none; stroke: #000000; stroke-width: 0.8; stroke-linejoin: miter; stroke-linecap: square"/>
   </g>
   <g id="patch_6">
    <path d="M 180 69.12 
L 422.608696 69.12 
" style="fill: none; stroke: #000000; stroke-width: 0.8; stroke-linejoin: miter; stroke-linecap: square"/>
   </g>
   <g id="text_14">
    <!-- f18_50 -->
    <g transform="translate(280.92216 63.12) scale(0.12 -0.12)">
     <defs>
      <path id="DejaVuSans-66" d="M 2375 4863 
L 2375 4384 
L 1825 4384 
Q 1516 4384 1395 4259 
Q 1275 4134 1275 3809 
L 1275 3500 
L 2222 3500 
L 2222 3053 
L 1275 3053 
L 1275 0 
L 697 0 
L 697 3053 
L 147 3053 
L 147 3500 
L 697 3500 
L 697 3744 
Q 697 4328 969 4595 
Q 1241 4863 1831 4863 
L 2375 4863 
z
" transform="scale(0.015625)"/>
      <path id="DejaVuSans-5f" d="M 3263 -1063 
L 3263 -1509 
L -63 -1509 
L -63 -1063 
L 3263 -1063 
z
" transform="scale(0.015625)"/>
     </defs>
     <use xlink:href="#DejaVuSans-66"/>
     <use xlink:href="#DejaVuSans-31" x="35.205078"/>
     <use xlink:href="#DejaVuSans-38" x="98.828125"/>
     <use xlink:href="#DejaVuSans-5f" x="162.451172"/>
     <use xlink:href="#DejaVuSans-35" x="212.451172"/>
     <use xlink:href="#DejaVuSans-30" x="276.074219"/>
    </g>
   </g>
   <g id="legend_1">
    <g id="patch_7">
     <path d="M 187 209.223125 
L 289.1375 209.223125 
Q 291.1375 209.223125 291.1375 207.223125 
L 291.1375 76.12 
Q 291.1375 74.12 289.1375 74.12 
L 187 74.12 
Q 185 74.12 185 76.12 
L 185 207.223125 
Q 185 209.223125 187 209.223125 
z
" style="fill: #ffffff; opacity: 0.8; stroke: #cccccc; stroke-linejoin: miter"/>
    </g>
    <g id="line2d_32">
     <path d="M 189 82.218437 
L 199 82.218437 
L 209 82.218437 
" style="fill: none; stroke: #1f77b4; stroke-width: 2; stroke-linecap: square"/>
    </g>
    <g id="text_15">
     <!-- GGP -->
     <g transform="translate(217 85.718437) scale(0.1 -0.1)">
      <defs>
       <path id="DejaVuSans-50" d="M 1259 4147 
L 1259 2394 
L 2053 2394 
Q 2494 2394 2734 2622 
Q 2975 2850 2975 3272 
Q 2975 3691 2734 3919 
Q 2494 4147 2053 4147 
L 1259 4147 
z
M 628 4666 
L 2053 4666 
Q 2838 4666 3239 4311 
Q 3641 3956 3641 3272 
Q 3641 2581 3239 2228 
Q 2838 1875 2053 1875 
L 1259 1875 
L 1259 0 
L 628 0 
L 628 4666 
z
" transform="scale(0.015625)"/>
      </defs>
      <use xlink:href="#DejaVuSans-47"/>
      <use xlink:href="#DejaVuSans-47" x="77.490234"/>
      <use xlink:href="#DejaVuSans-50" x="154.980469"/>
     </g>
    </g>
    <g id="line2d_33">
     <path d="M 189 96.896563 
L 199 96.896563 
L 209 96.896563 
" style="fill: none; stroke: #ff7f0e; stroke-width: 2; stroke-linecap: square"/>
    </g>
    <g id="text_16">
     <!-- SC1-GGP -->
     <g transform="translate(217 100.396563) scale(0.1 -0.1)">
      <defs>
       <path id="DejaVuSans-43" d="M 4122 4306 
L 4122 3641 
Q 3803 3938 3442 4084 
Q 3081 4231 2675 4231 
Q 1875 4231 1450 3742 
Q 1025 3253 1025 2328 
Q 1025 1406 1450 917 
Q 1875 428 2675 428 
Q 3081 428 3442 575 
Q 3803 722 4122 1019 
L 4122 359 
Q 3791 134 3420 21 
Q 3050 -91 2638 -91 
Q 1578 -91 968 557 
Q 359 1206 359 2328 
Q 359 3453 968 4101 
Q 1578 4750 2638 4750 
Q 3056 4750 3426 4639 
Q 3797 4528 4122 4306 
z
" transform="scale(0.015625)"/>
       <path id="DejaVuSans-2d" d="M 313 2009 
L 1997 2009 
L 1997 1497 
L 313 1497 
L 313 2009 
z
" transform="scale(0.015625)"/>
      </defs>
      <use xlink:href="#DejaVuSans-53"/>
      <use xlink:href="#DejaVuSans-43" x="63.476562"/>
      <use xlink:href="#DejaVuSans-31" x="133.300781"/>
      <use xlink:href="#DejaVuSans-2d" x="196.923828"/>
      <use xlink:href="#DejaVuSans-47" x="236.632812"/>
      <use xlink:href="#DejaVuSans-47" x="314.123047"/>
      <use xlink:href="#DejaVuSans-50" x="391.613281"/>
     </g>
    </g>
    <g id="line2d_34">
     <path d="M 189 111.574687 
L 199 111.574687 
L 209 111.574687 
" style="fill: none; stroke: #2ca02c; stroke-width: 2; stroke-linecap: square"/>
    </g>
    <g id="text_17">
     <!-- SC1-SM1-GGP -->
     <g transform="translate(217 115.074687) scale(0.1 -0.1)">
      <use xlink:href="#DejaVuSans-53"/>
      <use xlink:href="#DejaVuSans-43" x="63.476562"/>
      <use xlink:href="#DejaVuSans-31" x="133.300781"/>
      <use xlink:href="#DejaVuSans-2d" x="196.923828"/>
      <use xlink:href="#DejaVuSans-53" x="233.007812"/>
      <use xlink:href="#DejaVuSans-4d" x="296.484375"/>
      <use xlink:href="#DejaVuSans-31" x="382.763672"/>
      <use xlink:href="#DejaVuSans-2d" x="446.386719"/>
      <use xlink:href="#DejaVuSans-47" x="486.095703"/>
      <use xlink:href="#DejaVuSans-47" x="563.585938"/>
      <use xlink:href="#DejaVuSans-50" x="641.076172"/>
     </g>
    </g>
    <g id="line2d_35">
     <path d="M 189 126.252813 
L 199 126.252813 
L 209 126.252813 
" style="fill: none; stroke: #d62728; stroke-width: 2; stroke-linecap: square"/>
    </g>
    <g id="text_18">
     <!-- SC1-SM2-GGP -->
     <g transform="translate(217 129.752813) scale(0.1 -0.1)">
      <use xlink:href="#DejaVuSans-53"/>
      <use xlink:href="#DejaVuSans-43" x="63.476562"/>
      <use xlink:href="#DejaVuSans-31" x="133.300781"/>
      <use xlink:href="#DejaVuSans-2d" x="196.923828"/>
      <use xlink:href="#DejaVuSans-53" x="233.007812"/>
      <use xlink:href="#DejaVuSans-4d" x="296.484375"/>
      <use xlink:href="#DejaVuSans-32" x="382.763672"/>
      <use xlink:href="#DejaVuSans-2d" x="446.386719"/>
      <use xlink:href="#DejaVuSans-47" x="486.095703"/>
      <use xlink:href="#DejaVuSans-47" x="563.585938"/>
      <use xlink:href="#DejaVuSans-50" x="641.076172"/>
     </g>
    </g>
    <g id="line2d_36">
     <path d="M 189 140.930938 
L 199 140.930938 
L 209 140.930938 
" style="fill: none; stroke: #9467bd; stroke-width: 2; stroke-linecap: square"/>
    </g>
    <g id="text_19">
     <!-- SC2-GGP -->
     <g transform="translate(217 144.430938) scale(0.1 -0.1)">
      <use xlink:href="#DejaVuSans-53"/>
      <use xlink:href="#DejaVuSans-43" x="63.476562"/>
      <use xlink:href="#DejaVuSans-32" x="133.300781"/>
      <use xlink:href="#DejaVuSans-2d" x="196.923828"/>
      <use xlink:href="#DejaVuSans-47" x="236.632812"/>
      <use xlink:href="#DejaVuSans-47" x="314.123047"/>
      <use xlink:href="#DejaVuSans-50" x="391.613281"/>
     </g>
    </g>
    <g id="line2d_37">
     <path d="M 189 155.609062 
L 199 155.609062 
L 209 155.609062 
" style="fill: none; stroke: #8c564b; stroke-width: 2; stroke-linecap: square"/>
    </g>
    <g id="text_20">
     <!-- SC2-SM1-GGP -->
     <g transform="translate(217 159.109062) scale(0.1 -0.1)">
      <use xlink:href="#DejaVuSans-53"/>
      <use xlink:href="#DejaVuSans-43" x="63.476562"/>
      <use xlink:href="#DejaVuSans-32" x="133.300781"/>
      <use xlink:href="#DejaVuSans-2d" x="196.923828"/>
      <use xlink:href="#DejaVuSans-53" x="233.007812"/>
      <use xlink:href="#DejaVuSans-4d" x="296.484375"/>
      <use xlink:href="#DejaVuSans-31" x="382.763672"/>
      <use xlink:href="#DejaVuSans-2d" x="446.386719"/>
      <use xlink:href="#DejaVuSans-47" x="486.095703"/>
      <use xlink:href="#DejaVuSans-47" x="563.585938"/>
      <use xlink:href="#DejaVuSans-50" x="641.076172"/>
     </g>
    </g>
    <g id="line2d_38">
     <path d="M 189 170.287187 
L 199 170.287187 
L 209 170.287187 
" style="fill: none; stroke: #e377c2; stroke-width: 2; stroke-linecap: square"/>
    </g>
    <g id="text_21">
     <!-- SC2-SM2-GGP -->
     <g transform="translate(217 173.787187) scale(0.1 -0.1)">
      <use xlink:href="#DejaVuSans-53"/>
      <use xlink:href="#DejaVuSans-43" x="63.476562"/>
      <use xlink:href="#DejaVuSans-32" x="133.300781"/>
      <use xlink:href="#DejaVuSans-2d" x="196.923828"/>
      <use xlink:href="#DejaVuSans-53" x="233.007812"/>
      <use xlink:href="#DejaVuSans-4d" x="296.484375"/>
      <use xlink:href="#DejaVuSans-32" x="382.763672"/>
      <use xlink:href="#DejaVuSans-2d" x="446.386719"/>
      <use xlink:href="#DejaVuSans-47" x="486.095703"/>
      <use xlink:href="#DejaVuSans-47" x="563.585938"/>
      <use xlink:href="#DejaVuSans-50" x="641.076172"/>
     </g>
    </g>
    <g id="line2d_39">
     <path d="M 189 184.965312 
L 199 184.965312 
L 209 184.965312 
" style="fill: none; stroke: #7f7f7f; stroke-width: 2; stroke-linecap: square"/>
    </g>
    <g id="text_22">
     <!-- SM1-GGP -->
     <g transform="translate(217 188.465312) scale(0.1 -0.1)">
      <use xlink:href="#DejaVuSans-53"/>
      <use xlink:href="#DejaVuSans-4d" x="63.476562"/>
      <use xlink:href="#DejaVuSans-31" x="149.755859"/>
      <use xlink:href="#DejaVuSans-2d" x="213.378906"/>
      <use xlink:href="#DejaVuSans-47" x="253.087891"/>
      <use xlink:href="#DejaVuSans-47" x="330.578125"/>
      <use xlink:href="#DejaVuSans-50" x="408.068359"/>
     </g>
    </g>
    <g id="line2d_40">
     <path d="M 189 199.643438 
L 199 199.643438 
L 209 199.643438 
" style="fill: none; stroke: #bcbd22; stroke-width: 2; stroke-linecap: square"/>
    </g>
    <g id="text_23">
     <!-- SM2-GGP -->
     <g transform="translate(217 203.143438) scale(0.1 -0.1)">
      <use xlink:href="#DejaVuSans-53"/>
      <use xlink:href="#DejaVuSans-4d" x="63.476562"/>
      <use xlink:href="#DejaVuSans-32" x="149.755859"/>
      <use xlink:href="#DejaVuSans-2d" x="213.378906"/>
      <use xlink:href="#DejaVuSans-47" x="253.087891"/>
      <use xlink:href="#DejaVuSans-47" x="330.578125"/>
      <use xlink:href="#DejaVuSans-50" x="408.068359"/>
     </g>
    </g>
   </g>
  </g>
  <g id="axes_2">
   <g id="patch_8">
    <path d="M 471.130435 512.64 
L 713.73913 512.64 
L 713.73913 69.12 
L 471.130435 69.12 
z
" style="fill: #ffffff"/>
   </g>
   <g id="matplotlib.axis_3">
    <g id="xtick_7">
     <g id="line2d_41">
      <g>
       <use xlink:href="#m43b7c0e360" x="471.130435" y="512.64" style="stroke: #000000; stroke-width: 0.8"/>
      </g>
     </g>
     <g id="text_24">
      <!-- 0.0 -->
      <g transform="translate(463.178872 527.238438) scale(0.1 -0.1)">
       <defs>
        <path id="DejaVuSans-2e" d="M 684 794 
L 1344 794 
L 1344 0 
L 684 0 
L 684 794 
z
" transform="scale(0.015625)"/>
       </defs>
       <use xlink:href="#DejaVuSans-30"/>
       <use xlink:href="#DejaVuSans-2e" x="63.623047"/>
       <use xlink:href="#DejaVuSans-30" x="95.410156"/>
      </g>
     </g>
    </g>
    <g id="xtick_8">
     <g id="line2d_42">
      <g>
       <use xlink:href="#m43b7c0e360" x="519.652174" y="512.64" style="stroke: #000000; stroke-width: 0.8"/>
      </g>
     </g>
     <g id="text_25">
      <!-- 0.2 -->
      <g transform="translate(511.700611 527.238438) scale(0.1 -0.1)">
       <use xlink:href="#DejaVuSans-30"/>
       <use xlink:href="#DejaVuSans-2e" x="63.623047"/>
       <use xlink:href="#DejaVuSans-32" x="95.410156"/>
      </g>
     </g>
    </g>
    <g id="xtick_9">
     <g id="line2d_43">
      <g>
       <use xlink:href="#m43b7c0e360" x="568.173913" y="512.64" style="stroke: #000000; stroke-width: 0.8"/>
      </g>
     </g>
     <g id="text_26">
      <!-- 0.4 -->
      <g transform="translate(560.222351 527.238438) scale(0.1 -0.1)">
       <use xlink:href="#DejaVuSans-30"/>
       <use xlink:href="#DejaVuSans-2e" x="63.623047"/>
       <use xlink:href="#DejaVuSans-34" x="95.410156"/>
      </g>
     </g>
    </g>
    <g id="xtick_10">
     <g id="line2d_44">
      <g>
       <use xlink:href="#m43b7c0e360" x="616.695652" y="512.64" style="stroke: #000000; stroke-width: 0.8"/>
      </g>
     </g>
     <g id="text_27">
      <!-- 0.6 -->
      <g transform="translate(608.74409 527.238438) scale(0.1 -0.1)">
       <use xlink:href="#DejaVuSans-30"/>
       <use xlink:href="#DejaVuSans-2e" x="63.623047"/>
       <use xlink:href="#DejaVuSans-36" x="95.410156"/>
      </g>
     </g>
    </g>
    <g id="xtick_11">
     <g id="line2d_45">
      <g>
       <use xlink:href="#m43b7c0e360" x="665.217391" y="512.64" style="stroke: #000000; stroke-width: 0.8"/>
      </g>
     </g>
     <g id="text_28">
      <!-- 0.8 -->
      <g transform="translate(657.265829 527.238438) scale(0.1 -0.1)">
       <use xlink:href="#DejaVuSans-30"/>
       <use xlink:href="#DejaVuSans-2e" x="63.623047"/>
       <use xlink:href="#DejaVuSans-38" x="95.410156"/>
      </g>
     </g>
    </g>
    <g id="xtick_12">
     <g id="line2d_46">
      <g>
       <use xlink:href="#m43b7c0e360" x="713.73913" y="512.64" style="stroke: #000000; stroke-width: 0.8"/>
      </g>
     </g>
     <g id="text_29">
      <!-- 1.0 -->
      <g transform="translate(705.787568 527.238438) scale(0.1 -0.1)">
       <use xlink:href="#DejaVuSans-31"/>
       <use xlink:href="#DejaVuSans-2e" x="63.623047"/>
       <use xlink:href="#DejaVuSans-30" x="95.410156"/>
      </g>
     </g>
    </g>
   </g>
   <g id="matplotlib.axis_4">
    <g id="ytick_6">
     <g id="line2d_47">
      <g>
       <use xlink:href="#me17b0ba368" x="471.130435" y="464.484011" style="stroke: #000000; stroke-width: 0.8"/>
      </g>
     </g>
    </g>
    <g id="ytick_7">
     <g id="line2d_48">
      <g>
       <use xlink:href="#me17b0ba368" x="471.130435" y="381.303524" style="stroke: #000000; stroke-width: 0.8"/>
      </g>
     </g>
    </g>
    <g id="ytick_8">
     <g id="line2d_49">
      <g>
       <use xlink:href="#me17b0ba368" x="471.130435" y="298.123037" style="stroke: #000000; stroke-width: 0.8"/>
      </g>
     </g>
    </g>
    <g id="ytick_9">
     <g id="line2d_50">
      <g>
       <use xlink:href="#me17b0ba368" x="471.130435" y="214.942551" style="stroke: #000000; stroke-width: 0.8"/>
      </g>
     </g>
    </g>
    <g id="ytick_10">
     <g id="line2d_51">
      <g>
       <use xlink:href="#me17b0ba368" x="471.130435" y="131.762064" style="stroke: #000000; stroke-width: 0.8"/>
      </g>
     </g>
    </g>
   </g>
   <g id="patch_9">
    <path d="M 471.130435 512.64 
L 471.130435 69.12 
" style="fill: none; stroke: #000000; stroke-width: 0.8; stroke-linejoin: miter; stroke-linecap: square"/>
   </g>
   <g id="patch_10">
    <path d="M 713.73913 512.64 
L 713.73913 69.12 
" style="fill: none; stroke: #000000; stroke-width: 0.8; stroke-linejoin: miter; stroke-linecap: square"/>
   </g>
   <g id="patch_11">
    <path d="M 471.130435 512.64 
L 713.73913 512.64 
" style="fill: none; stroke: #000000; stroke-width: 0.8; stroke-linejoin: miter; stroke-linecap: square"/>
   </g>
   <g id="patch_12">
    <path d="M 471.130435 69.12 
L 713.73913 69.12 
" style="fill: none; stroke: #000000; stroke-width: 0.8; stroke-linejoin: miter; stroke-linecap: square"/>
   </g>
  </g>
  <g id="axes_3">
   <g id="patch_13">
    <path d="M 762.26087 512.64 
L 1004.869565 512.64 
L 1004.869565 69.12 
L 762.26087 69.12 
z
" style="fill: #ffffff"/>
   </g>
   <g id="matplotlib.axis_5">
    <g id="xtick_13">
     <g id="line2d_52">
      <g>
       <use xlink:href="#m43b7c0e360" x="762.26087" y="512.64" style="stroke: #000000; stroke-width: 0.8"/>
      </g>
     </g>
     <g id="text_30">
      <!-- 0.0 -->
      <g transform="translate(754.309307 527.238438) scale(0.1 -0.1)">
       <use xlink:href="#DejaVuSans-30"/>
       <use xlink:href="#DejaVuSans-2e" x="63.623047"/>
       <use xlink:href="#DejaVuSans-30" x="95.410156"/>
      </g>
     </g>
    </g>
    <g id="xtick_14">
     <g id="line2d_53">
      <g>
       <use xlink:href="#m43b7c0e360" x="810.782609" y="512.64" style="stroke: #000000; stroke-width: 0.8"/>
      </g>
     </g>
     <g id="text_31">
      <!-- 0.2 -->
      <g transform="translate(802.831046 527.238438) scale(0.1 -0.1)">
       <use xlink:href="#DejaVuSans-30"/>
       <use xlink:href="#DejaVuSans-2e" x="63.623047"/>
       <use xlink:href="#DejaVuSans-32" x="95.410156"/>
      </g>
     </g>
    </g>
    <g id="xtick_15">
     <g id="line2d_54">
      <g>
       <use xlink:href="#m43b7c0e360" x="859.304348" y="512.64" style="stroke: #000000; stroke-width: 0.8"/>
      </g>
     </g>
     <g id="text_32">
      <!-- 0.4 -->
      <g transform="translate(851.352785 527.238438) scale(0.1 -0.1)">
       <use xlink:href="#DejaVuSans-30"/>
       <use xlink:href="#DejaVuSans-2e" x="63.623047"/>
       <use xlink:href="#DejaVuSans-34" x="95.410156"/>
      </g>
     </g>
    </g>
    <g id="xtick_16">
     <g id="line2d_55">
      <g>
       <use xlink:href="#m43b7c0e360" x="907.826087" y="512.64" style="stroke: #000000; stroke-width: 0.8"/>
      </g>
     </g>
     <g id="text_33">
      <!-- 0.6 -->
      <g transform="translate(899.874524 527.238438) scale(0.1 -0.1)">
       <use xlink:href="#DejaVuSans-30"/>
       <use xlink:href="#DejaVuSans-2e" x="63.623047"/>
       <use xlink:href="#DejaVuSans-36" x="95.410156"/>
      </g>
     </g>
    </g>
    <g id="xtick_17">
     <g id="line2d_56">
      <g>
       <use xlink:href="#m43b7c0e360" x="956.347826" y="512.64" style="stroke: #000000; stroke-width: 0.8"/>
      </g>
     </g>
     <g id="text_34">
      <!-- 0.8 -->
      <g transform="translate(948.396264 527.238438) scale(0.1 -0.1)">
       <use xlink:href="#DejaVuSans-30"/>
       <use xlink:href="#DejaVuSans-2e" x="63.623047"/>
       <use xlink:href="#DejaVuSans-38" x="95.410156"/>
      </g>
     </g>
    </g>
    <g id="xtick_18">
     <g id="line2d_57">
      <g>
       <use xlink:href="#m43b7c0e360" x="1004.869565" y="512.64" style="stroke: #000000; stroke-width: 0.8"/>
      </g>
     </g>
     <g id="text_35">
      <!-- 1.0 -->
      <g transform="translate(996.918003 527.238438) scale(0.1 -0.1)">
       <use xlink:href="#DejaVuSans-31"/>
       <use xlink:href="#DejaVuSans-2e" x="63.623047"/>
       <use xlink:href="#DejaVuSans-30" x="95.410156"/>
      </g>
     </g>
    </g>
   </g>
   <g id="matplotlib.axis_6">
    <g id="ytick_11">
     <g id="line2d_58">
      <g>
       <use xlink:href="#me17b0ba368" x="762.26087" y="464.484011" style="stroke: #000000; stroke-width: 0.8"/>
      </g>
     </g>
    </g>
    <g id="ytick_12">
     <g id="line2d_59">
      <g>
       <use xlink:href="#me17b0ba368" x="762.26087" y="381.303524" style="stroke: #000000; stroke-width: 0.8"/>
      </g>
     </g>
    </g>
    <g id="ytick_13">
     <g id="line2d_60">
      <g>
       <use xlink:href="#me17b0ba368" x="762.26087" y="298.123037" style="stroke: #000000; stroke-width: 0.8"/>
      </g>
     </g>
    </g>
    <g id="ytick_14">
     <g id="line2d_61">
      <g>
       <use xlink:href="#me17b0ba368" x="762.26087" y="214.942551" style="stroke: #000000; stroke-width: 0.8"/>
      </g>
     </g>
    </g>
    <g id="ytick_15">
     <g id="line2d_62">
      <g>
       <use xlink:href="#me17b0ba368" x="762.26087" y="131.762064" style="stroke: #000000; stroke-width: 0.8"/>
      </g>
     </g>
    </g>
   </g>
   <g id="patch_14">
    <path d="M 762.26087 512.64 
L 762.26087 69.12 
" style="fill: none; stroke: #000000; stroke-width: 0.8; stroke-linejoin: miter; stroke-linecap: square"/>
   </g>
   <g id="patch_15">
    <path d="M 1004.869565 512.64 
L 1004.869565 69.12 
" style="fill: none; stroke: #000000; stroke-width: 0.8; stroke-linejoin: miter; stroke-linecap: square"/>
   </g>
   <g id="patch_16">
    <path d="M 762.26087 512.64 
L 1004.869565 512.64 
" style="fill: none; stroke: #000000; stroke-width: 0.8; stroke-linejoin: miter; stroke-linecap: square"/>
   </g>
   <g id="patch_17">
    <path d="M 762.26087 69.12 
L 1004.869565 69.12 
" style="fill: none; stroke: #000000; stroke-width: 0.8; stroke-linejoin: miter; stroke-linecap: square"/>
   </g>
  </g>
  <g id="axes_4">
   <g id="patch_18">
    <path d="M 1053.391304 512.64 
L 1296 512.64 
L 1296 69.12 
L 1053.391304 69.12 
z
" style="fill: #ffffff"/>
   </g>
   <g id="matplotlib.axis_7">
    <g id="xtick_19">
     <g id="line2d_63">
      <g>
       <use xlink:href="#m43b7c0e360" x="1053.391304" y="512.64" style="stroke: #000000; stroke-width: 0.8"/>
      </g>
     </g>
     <g id="text_36">
      <!-- 0.0 -->
      <g transform="translate(1045.439742 527.238438) scale(0.1 -0.1)">
       <use xlink:href="#DejaVuSans-30"/>
       <use xlink:href="#DejaVuSans-2e" x="63.623047"/>
       <use xlink:href="#DejaVuSans-30" x="95.410156"/>
      </g>
     </g>
    </g>
    <g id="xtick_20">
     <g id="line2d_64">
      <g>
       <use xlink:href="#m43b7c0e360" x="1101.913043" y="512.64" style="stroke: #000000; stroke-width: 0.8"/>
      </g>
     </g>
     <g id="text_37">
      <!-- 0.2 -->
      <g transform="translate(1093.961481 527.238438) scale(0.1 -0.1)">
       <use xlink:href="#DejaVuSans-30"/>
       <use xlink:href="#DejaVuSans-2e" x="63.623047"/>
       <use xlink:href="#DejaVuSans-32" x="95.410156"/>
      </g>
     </g>
    </g>
    <g id="xtick_21">
     <g id="line2d_65">
      <g>
       <use xlink:href="#m43b7c0e360" x="1150.434783" y="512.64" style="stroke: #000000; stroke-width: 0.8"/>
      </g>
     </g>
     <g id="text_38">
      <!-- 0.4 -->
      <g transform="translate(1142.48322 527.238438) scale(0.1 -0.1)">
       <use xlink:href="#DejaVuSans-30"/>
       <use xlink:href="#DejaVuSans-2e" x="63.623047"/>
       <use xlink:href="#DejaVuSans-34" x="95.410156"/>
      </g>
     </g>
    </g>
    <g id="xtick_22">
     <g id="line2d_66">
      <g>
       <use xlink:href="#m43b7c0e360" x="1198.956522" y="512.64" style="stroke: #000000; stroke-width: 0.8"/>
      </g>
     </g>
     <g id="text_39">
      <!-- 0.6 -->
      <g transform="translate(1191.004959 527.238438) scale(0.1 -0.1)">
       <use xlink:href="#DejaVuSans-30"/>
       <use xlink:href="#DejaVuSans-2e" x="63.623047"/>
       <use xlink:href="#DejaVuSans-36" x="95.410156"/>
      </g>
     </g>
    </g>
    <g id="xtick_23">
     <g id="line2d_67">
      <g>
       <use xlink:href="#m43b7c0e360" x="1247.478261" y="512.64" style="stroke: #000000; stroke-width: 0.8"/>
      </g>
     </g>
     <g id="text_40">
      <!-- 0.8 -->
      <g transform="translate(1239.526698 527.238438) scale(0.1 -0.1)">
       <use xlink:href="#DejaVuSans-30"/>
       <use xlink:href="#DejaVuSans-2e" x="63.623047"/>
       <use xlink:href="#DejaVuSans-38" x="95.410156"/>
      </g>
     </g>
    </g>
    <g id="xtick_24">
     <g id="line2d_68">
      <g>
       <use xlink:href="#m43b7c0e360" x="1296" y="512.64" style="stroke: #000000; stroke-width: 0.8"/>
      </g>
     </g>
     <g id="text_41">
      <!-- 1.0 -->
      <g transform="translate(1288.048438 527.238438) scale(0.1 -0.1)">
       <use xlink:href="#DejaVuSans-31"/>
       <use xlink:href="#DejaVuSans-2e" x="63.623047"/>
       <use xlink:href="#DejaVuSans-30" x="95.410156"/>
      </g>
     </g>
    </g>
   </g>
   <g id="matplotlib.axis_8">
    <g id="ytick_16">
     <g id="line2d_69">
      <g>
       <use xlink:href="#me17b0ba368" x="1053.391304" y="464.484011" style="stroke: #000000; stroke-width: 0.8"/>
      </g>
     </g>
    </g>
    <g id="ytick_17">
     <g id="line2d_70">
      <g>
       <use xlink:href="#me17b0ba368" x="1053.391304" y="381.303524" style="stroke: #000000; stroke-width: 0.8"/>
      </g>
     </g>
    </g>
    <g id="ytick_18">
     <g id="line2d_71">
      <g>
       <use xlink:href="#me17b0ba368" x="1053.391304" y="298.123037" style="stroke: #000000; stroke-width: 0.8"/>
      </g>
     </g>
    </g>
    <g id="ytick_19">
     <g id="line2d_72">
      <g>
       <use xlink:href="#me17b0ba368" x="1053.391304" y="214.942551" style="stroke: #000000; stroke-width: 0.8"/>
      </g>
     </g>
    </g>
    <g id="ytick_20">
     <g id="line2d_73">
      <g>
       <use xlink:href="#me17b0ba368" x="1053.391304" y="131.762064" style="stroke: #000000; stroke-width: 0.8"/>
      </g>
     </g>
    </g>
   </g>
   <g id="patch_19">
    <path d="M 1053.391304 512.64 
L 1053.391304 69.12 
" style="fill: none; stroke: #000000; stroke-width: 0.8; stroke-linejoin: miter; stroke-linecap: square"/>
   </g>
   <g id="patch_20">
    <path d="M 1296 512.64 
L 1296 69.12 
" style="fill: none; stroke: #000000; stroke-width: 0.8; stroke-linejoin: miter; stroke-linecap: square"/>
   </g>
   <g id="patch_21">
    <path d="M 1053.391304 512.64 
L 1296 512.64 
" style="fill: none; stroke: #000000; stroke-width: 0.8; stroke-linejoin: miter; stroke-linecap: square"/>
   </g>
   <g id="patch_22">
    <path d="M 1053.391304 69.12 
L 1296 69.12 
" style="fill: none; stroke: #000000; stroke-width: 0.8; stroke-linejoin: miter; stroke-linecap: square"/>
   </g>
  </g>
  <g id="text_42">
   <!-- f18 -->
   <g transform="translate(710.252813 20.638125) scale(0.12 -0.12)">
    <use xlink:href="#DejaVuSans-66"/>
    <use xlink:href="#DejaVuSans-31" x="35.205078"/>
    <use xlink:href="#DejaVuSans-38" x="98.828125"/>
   </g>
  </g>
 </g>
 <defs>
  <clipPath id="p3ad412e384">
   <rect x="180" y="69.12" width="242.608696" height="443.52"/>
  </clipPath>
 </defs>
</svg>
